# xmcd
#
# Track frame offsets: 
#        150
#        19000
#        40032
#        58162
#        81630
#        101185
#        123720
#        139825
#        162307
#        177622
#        199942
#
# Disc length: 2903 seconds
#
# Revision: 2
# Processed by: cddbd v1.5.2PL0 Copyright (c) Steve Scherf et al.
# Submitted via: ExactAudioCopyFreeDBPlugin 1.0
#
DISCID=a60b550b
DTITLE=Guitar Slim, Jr. - Nothing Nice
DYEAR=1996
DGENRE=Blues
TTITLE0=If You Think That Jive Will Do
TTITLE1=I Feel So Bad
TTITLE2=Oo Wee Baby, I Love You
TTITLE3=Steal Away
TTITLE4=The Things I Used To Do
TTITLE5=Try A Little Tenderness
TTITLE6=I Want You
TTITLE7=The Rivers Invitation
TTITLE8=Our Only Child
TTITLE9=Leave My Girl Alone
TTITLE10=I Got Sumpin For You
EXTD=
EXTT0=
EXTT1=
EXTT2=
EXTT3=
EXTT4=
EXTT5=
EXTT6=
EXTT7=
EXTT8=
EXTT9=
EXTT10=
PLAYORDER=
